# xmcd
#
# Track frame offsets: 
#        150
#        18951
#        34482
#        53398
#        75338
#        90605
#        106141
#        122550
#        138180
#        149860
#        165751
#        185189
#        196405
#        213522
#        237659
#        256317
#        273606
#        289205
#        310357
#        323874
#
# Disc length: 4640 seconds
#
# Revision: 0
# Processed by: cddbd v1.5.2PL0 Copyright (c) Steve Scherf et al.
# Submitted via: ExactAudioCopy v1.1
#
DISCID=25121e14
DTITLE=Various Artist - JOE Top 2000 Volume 11 - CD 3
DYEAR=2019
DGENRE=Top 40
TTITLE0=John Lennon - Jealous Guy
TTITLE1=Barry White - Let The Music Play
TTITLE2=Céline Dion - Pour Que Tu M'Aimes Encore
TTITLE3=Eurythmics - Here Comes The Rain Again
TTITLE4=The Cure - Close To Me
TTITLE5=Orchestral Manoeuvres In The Dark - Electricity
TTITLE6=Kenny Loggins - Footloose
TTITLE7=Beastie Boys - (You Gotta) Fight For Your Right (To Party)
TTITLE8=The Troggs - Wild Thing
TTITLE9=Chumbawamba - Tubthumping
TTITLE10=Santana Feat. The Product G&B - Maria Maria
TTITLE11=The Byrds - Mr. Tambourine Man
TTITLE12=Toploader - Dancing In The Moonlight
TTITLE13=Whitney Houston - Love Will Save The Day
TTITLE14=Matia Bazar - Ti Sento
TTITLE15=The Pointer Sisters - Slow Hand
TTITLE16=Terry Jacks - Seasons In The Sun
TTITLE17=Mike Oldfield Feat. Maggie Reilly - To France
TTITLE18=John Denver - Annie's Song
TTITLE19=Meat Loaf - I'd Do Anything For Love (But I Won't Do That)
EXTD=
EXTT0=
EXTT1=
EXTT2=
EXTT3=
EXTT4=
EXTT5=
EXTT6=
EXTT7=
EXTT8=
EXTT9=
EXTT10=
EXTT11=
EXTT12=
EXTT13=
EXTT14=
EXTT15=
EXTT16=
EXTT17=
EXTT18=
EXTT19=
PLAYORDER=
